<?xml version="1.0" encoding="utf-8"?>
<!-- Generator: Adobe Illustrator 22.0.1, SVG Export Plug-In . SVG Version: 6.00 Build 0)  -->
<svg version="1.1" id="Livello_1" xmlns="http://www.w3.org/2000/svg" xmlns:xlink="http://www.w3.org/1999/xlink" x="0px" y="0px"
	 viewBox="0 0 56.7 56.7" style="enable-background:new 0 0 56.7 56.7;" xml:space="preserve">
<g>
	<path d="M35.2,29.7c0,0-9.5,0-10.4,0c-4.1,0-6.5,3.2-6.9,3.8c0,0,0,0.1,0,0c0.5-0.3,2.8-1.5,5.5-1.5c2.6,0,11.8,0,11.8,0
		c0.6,0,1-0.5,1-1.2C36.2,30.2,35.8,29.7,35.2,29.7z"/>
	<path d="M35.2,32.8c0,0-10.2,0-11.2,0c-0.9,0-4.9-0.2-8.2,3.3c0,0,0,0.1,0,0.1c0.5-0.2,2.5-0.9,5.5-0.9c2.6,0,13.8,0,13.8,0
		c0.6,0,1-0.5,1-1.2S35.8,32.8,35.2,32.8z"/>
	<path d="M53.4,31.6c-0.1-2.9-2.2-4.7-3.4-6.9c0,0-0.1,0-0.1,0c-0.2,4.2,2.9,6.9,2.8,10.4c0,0,0.1,0.1,0.1,0
		c2.4-3.3,4.7-7.4,3.1-11.7c0,0-0.1,0-0.1,0C55.8,26.8,53.8,29.4,53.4,31.6C53.4,31.7,53.4,31.7,53.4,31.6z"/>
	<path d="M53.1,24.1C53.1,24.1,53,24.1,53.1,24.1c-1-2.2-3.5-3.3-4.6-4.9c0,0-0.1,0-0.1,0c1,4.5,4.4,5.9,5,8.2c0,0,0.1,0,0.1,0
		c0.5-1.8,1.4-3.7,1.3-6.4c-0.1-2.1-0.5-4.1-1.9-5.8c0,0-0.1,0-0.1,0C53.7,18.7,52.7,21.6,53.1,24.1z"/>
	<path d="M49.1,15C49.1,15,49.1,15,49.1,15c-0.9-3.4-3.2-6-6.3-6.1c0,0-0.1,0.1,0,0.1C45.1,10.5,44.8,11.8,49.1,15z"/>
	<path d="M36.9,26.2c0.1-0.1,0.1-0.2,0-0.2c0-0.1-0.2-0.1-0.2,0c-1.2,1.2-1.9,2.6-2.1,3.1h0.7C35.5,28.2,36.3,26.7,36.9,26.2
		L36.9,26.2z"/>
	<path d="M42.1,23c-0.1-0.1-1.2,0.8-1.7,0.4c-0.1-0.1-0.2-0.1-0.4-0.1c-0.1,0-0.1,0-0.2,0.1c0,0,0-0.1,0-0.1c0-0.2,0-0.3,0-0.4
		c-0.2-0.7,0.8-1.6,0.7-1.7c-0.1-0.1-0.8,1.1-1.3,1.5C39.1,22.7,39,22.9,39,23c0,0.1,0,0.3,0,0.4c0.1,0.1,0.1,0.2,0.3,0.3
		c0.1,0,0.2,0,0.3,0c0,0.1,0,0.1,0,0.2c0,0.1,0.1,0.2,0.2,0.3c0.1,0.1,0.2,0.1,0.4,0.1c0.1,0,0.3-0.1,0.4-0.2
		C41,23.6,42.2,23.1,42.1,23z"/>
	<path d="M42.3,21.3c-0.1-0.2-1,0.8-1.6,0.9c-0.1,0-0.2,0.1-0.4,0.2c-0.1,0.1-0.2,0.2-0.2,0.4c0,0.1,0,0.2,0.1,0.3
		c0.1,0.1,0.2,0.1,0.3,0.1c0.1,0,0.2-0.1,0.4-0.2c0.1-0.1,0.2-0.2,0.2-0.4C41.3,21.9,42.4,21.4,42.3,21.3z"/>
	<path d="M41.4,24.3c0-0.1-1.4,0.6-1.9,0.1c-0.1-0.1-0.2-0.2-0.4-0.2c-0.1,0-0.2,0-0.3,0c0,0,0-0.1,0-0.1c0-0.2,0-0.3-0.1-0.5
		c-0.4-0.7,0.6-2,0.5-2S38.5,23,38,23.6c-0.1,0.1-0.2,0.2-0.2,0.4c0,0.2,0,0.3,0.1,0.5c0.1,0.1,0.2,0.2,0.3,0.2c0.1,0,0.1,0,0.2,0
		c0,0,0,0,0,0c0,0.1,0,0.3,0.1,0.4c0.1,0.1,0.2,0.2,0.4,0.2c0.2,0,0.3,0,0.4-0.1C40,24.7,41.4,24.5,41.4,24.3z"/>
	<path d="M36.2,40.1c0-0.7-0.5-1.2-1-1.2c0,0-10.7,0-11.7,0c-2.4,0-3.9-1.7-8-0.7c0,0,0,0.1,0,0.1c5,0.6,5.3,3.1,8.6,3.1
		c2.6,0,11.1,0,11.1,0C35.8,41.3,36.2,40.7,36.2,40.1z"/>
	<path d="M35.2,35.8c0,0-12.6,0-13.5,0c-1.2,0-4.2-0.2-7,1.7c0,0,0,0.1,0,0.1c5-1.2,5.9,0.6,9.2,0.6c2.6,0,11.3,0,11.3,0
		c0.6,0,1-0.5,1-1.2S35.8,35.8,35.2,35.8z"/>
	<path d="M24.1,41.9c-0.4,0-0.8,0-1.1-0.1c0,0,0,0,0,0c1,1.5,2.5,2.6,4.1,3.3c0.2,1.3,0.5,2.5,0.6,2.6c0.1,0.1,1.6-0.3,1.7-0.5
		c0-0.1-0.6-2.4-0.6-2.4c0.8-1.4,1-2.2,1.3-3H24.1z"/>
	<path d="M36.8,13.5c-0.1,0-0.1,1.7-0.4,2.5c-0.1,0.1-0.1,0.3,0,0.5c0,0.2,0.1,0.3,0.3,0.5c0.1,0.1,0.2,0.1,0.4,0.1c0,0,0.1,0,0.1,0
		c0,0,0,0,0,0.1c0,0.1,0.1,0.2,0.3,0.3c0.1,0.1,0.3,0.1,0.5,0c0.2,0,0.3-0.1,0.4-0.3c0.5-0.6,1.8-1.5,1.7-1.6
		c-0.1-0.1-1.1,1.2-1.9,0.9c-0.1-0.1-0.3-0.1-0.5,0c-0.1,0-0.2,0.1-0.3,0.2c0-0.1,0-0.2,0-0.3c0-0.2-0.1-0.3-0.3-0.4
		C36.5,15.2,36.9,13.5,36.8,13.5z"/>
	<path d="M33.7,25.7c0.7-3.2,2.7-7.1,3.3-8.2v0c0-0.1,0-0.1,0-0.2c-0.1,0-0.1,0-0.2,0c-3.1,5.1-4.2,8.1-4.8,11.6h1.9
		c0.3-3.4,4.6-11.4,9.2-10.9h0c0,0,0,0,0.1,0c0,0,0-0.1,0-0.1C42.5,17.9,38.3,17.2,33.7,25.7z"/>
	<path d="M33.8,46.4c0,0,0.1-0.1,0.1-0.1l-1-4.4h-1.8c0.3,1.1,0.7,2.2,1.2,3.2c0,0.1,0.1,0.1,0.2,0.1c0.1,0,0.1-0.1,0.1-0.2
		c-0.1-0.9-0.3-1.8-0.4-2.7C32.5,43.8,33,45.1,33.8,46.4C33.7,46.4,33.8,46.4,33.8,46.4z"/>
	<path d="M37.3,26.1c0.1,0.1,0.3,0.2,0.4,0.2c0.2,0,0.4,0,0.5-0.1c0.7-0.4,2.2-0.8,2.2-0.9c0-0.1-1.5,0.7-2.1,0.2
		c-0.1-0.1-0.3-0.2-0.4-0.2c-0.1,0-0.3,0-0.4,0c0-0.1,0.1-0.2,0.1-0.3c0-0.2,0-0.4-0.1-0.5c-0.3-0.7,0.6-2.2,0.5-2.3
		c-0.1-0.1-0.7,1.6-1.2,2.2c-0.1,0.1-0.2,0.3-0.2,0.5c0,0.2,0,0.4,0.1,0.5c0.1,0.1,0.2,0.2,0.3,0.2c0,0,0.1,0,0.1,0c0,0,0,0,0,0.1
		C37.1,25.8,37.2,26,37.3,26.1z"/>
	<path d="M35.6,44.5c0.1,0,0.1-0.1,0.1-0.2c-0.2-0.7-0.4-1.6-0.5-2.4h-0.7c0.3,0.8,0.6,1.7,0.9,2.5C35.4,44.5,35.5,44.5,35.6,44.5z"
		/>
	<path d="M35.7,47c0,0,0.1,0.1,0.1,0c0.1,0,0.1-0.1,0.1-0.1l0,0c-0.2-0.6-0.5-1.2-0.8-1.7c-0.3-0.6-0.5-1.2-0.7-1.8
		c-0.2-0.4-0.4-1-0.5-1.4h-0.7c0.2,0.5,0.4,1.1,0.6,1.7C34.4,44.8,35,46,35.7,47z"/>
	<path d="M50.7,17.8C50.7,17.8,50.7,17.8,50.7,17.8c-0.6-1-3.5-2.4-5.3-3.8c0,0-0.1,0-0.1,0c1,3.1,4.4,4.4,6.5,6.6c0,0,0.1,0,0.1,0
		c-0.2-3.3,0.4-7.3-3.2-10.1c0,0-0.1,0-0.1,0.1c0.8,1.2,1,2.6,1.3,4L50.7,17.8z"/>
	<path d="M16.4,50.9c1.7-0.1,2.9-0.9,4.5-1.2c0,0,0-0.1,0-0.1c-3.8-0.9-4.9-4.5-8.1-6.1c0,0-0.1,0,0,0.1c1,1.7,1.6,4.2,4.5,5.8
		c0,0,0,0.1,0,0c-4.2-0.8-5.9,0.3-10.3-1.7c0,0-0.1,0-0.1,0.1C8.3,49.9,11.7,51.3,16.4,50.9z"/>
	<path d="M3.3,27.5c0.7-2.3,4-3.8,5-8.2c0,0,0-0.1-0.1,0c-1.1,1.6-3.7,2.7-4.6,4.9c0,0-0.1,0,0,0C4,21.6,3,18.7,3.9,15.3
		c0,0,0-0.1-0.1,0C2.5,17,2,18.9,1.9,21.1C1.9,23.7,2.8,25.7,3.3,27.5C3.3,27.5,3.3,27.5,3.3,27.5z"/>
	<path d="M7.8,42.4C7.8,42.4,7.8,42.4,7.8,42.4C6.2,39.4,8.1,35,6.3,30.7c0,0-0.1,0-0.1,0c-0.1,2.3-1.5,5.8-0.6,8.5c0,0,0,0,0,0
		c-2.2-3.3-4-4-5.5-6.9c0,0-0.1,0-0.1,0c-0.1,2,0.8,3.7,1.8,5.2C3.5,39.6,5.5,41.3,7.8,42.4z"/>
	<path d="M4,35.2c-0.1-3.5,3-6.2,2.8-10.4c0,0-0.1-0.1-0.1,0c-1.2,2.2-3.3,4-3.4,6.9c0,0,0,0,0,0c-0.4-2.3-2.3-4.8-2.4-8.1
		c0-0.1-0.1-0.1-0.1,0C-0.8,27.8,1.5,31.8,4,35.2C3.9,35.2,4,35.2,4,35.2z"/>
	<path d="M12.9,47.4c-1.5-1.9-1-6-4.3-9.7c0,0-0.1,0-0.1,0c0.6,2.7,0.4,5.9,2.2,8.1c0,0,0,0,0,0c-3.4-2.7-6.9-3.5-8.4-5.6
		c0,0-0.1,0-0.1,0C2.5,43.1,7.9,47.4,12.9,47.4C12.9,47.5,12.9,47.4,12.9,47.4z"/>
	<path d="M56.6,32.3c-1.5,3-3.3,3.7-5.5,6.9c0,0,0,0,0,0c0.9-2.6-0.6-6.1-0.6-8.5c0,0-0.1-0.1-0.1,0c-1.8,4.3,0.1,8.7-1.5,11.6
		c0,0,0,0.1,0,0.1c2.2-1.1,4.3-2.8,5.9-4.8C55.9,36,56.8,34.3,56.6,32.3C56.7,32.3,56.6,32.2,56.6,32.3z"/>
	<path d="M37.6,12.6c-0.1,0-0.1,1.5-0.4,2.2c-0.1,0.1-0.1,0.3,0,0.5c0,0.2,0.1,0.3,0.3,0.4c0.1,0.1,0.3,0.1,0.4,0.1
		c0.1,0,0.1,0,0.2-0.1c0,0,0,0,0,0c0,0.1,0.1,0.3,0.3,0.3c0.1,0.1,0.3,0.1,0.4,0c0.2,0,0.3-0.1,0.4-0.3c0.4-0.6,1.7-1.4,1.6-1.5
		c-0.1-0.1-1.1,1.1-1.8,0.8c-0.1-0.1-0.3-0.1-0.5,0c-0.1,0-0.2,0.1-0.2,0.1c0,0,0-0.1,0-0.1c0-0.2-0.1-0.3-0.3-0.4
		C37.3,14.1,37.8,12.6,37.6,12.6z"/>
	<path d="M49.8,47.7c-4.4,2-6.1,0.9-10.3,1.7c0,0,0,0,0,0c2.9-1.6,3.5-4.1,4.5-5.8c0,0,0-0.1-0.1-0.1c-3.2,1.6-4.2,5.1-8.1,6.1
		c0,0,0,0.1,0,0.1c1.6,0.4,2.8,1.1,4.5,1.2C45,51.3,48.4,49.9,49.8,47.7C49.8,47.7,49.8,47.7,49.8,47.7z"/>
	<path d="M40,52.3c-3.7-1.1-7.7-3.3-11.6-1.5c-3.9-1.8-8,0.4-11.6,1.5c-1.6,0.4-3.6,0.4-5.1-0.2c0,0-0.1,0,0,0.1
		c2.2,1.7,5.2,2.4,7.9,1.5c2.6-0.8,4.8-3.6,7.9-2.4c-2.5,1-4.7,2.7-6.5,4.4l1.3,1.1c1.6-1.9,3.4-3.7,5.5-4.9
		c0.3-0.2,0.4-0.2,0.6-0.2c0.2,0,0.4,0.1,0.6,0.2c2.1,1.1,3.9,3,5.5,4.9l1.3-1.1c-1.8-1.7-4.1-3.4-6.5-4.4c3.1-1.2,5.3,1.6,7.9,2.4
		c2.7,1,5.8,0.2,7.9-1.5c0,0,0-0.1,0-0.1C43.5,52.7,41.6,52.8,40,52.3z"/>
	<path d="M54.5,40.3c-1.5,2.2-5,3-8.4,5.6c0,0,0,0,0,0c1.7-2.3,1.5-5.4,2.2-8.1c0,0,0-0.1-0.1,0c-3.3,3.7-2.9,7.8-4.3,9.7
		c0,0,0,0.1,0,0.1C48.8,47.4,54.2,43.1,54.5,40.3C54.5,40.3,54.5,40.2,54.5,40.3z"/>
	<path d="M31.6,13.6c-0.1,0.3-0.2,0.5-0.1,0.6c0,0,0,0,0,0c-0.1,0-0.3,0.2-0.4,0.5c-0.1,0.3-0.1,0.6-0.1,0.7c0,0,0,0,0,0
		c-0.1,0-0.3,0.2-0.4,0.6c-0.1,0.3-0.1,0.6,0,0.7c0,0,0,0,0,0c-0.1,0-0.3,0.2-0.4,0.6c-0.1,0.4-0.1,0.7,0,0.7
		c-0.1,0-0.3,0.3-0.4,0.6c-0.1,0.3-0.1,0.6,0,0.7c-0.1,0-0.2,0.3-0.3,0.7c-0.1,0.3,0,0.6,0.1,0.7c-0.1,0.1-0.2,0.3-0.3,0.7
		c0,0.3,0,0.6,0.1,0.7c-0.1,0.1-0.2,0.3-0.2,0.6c0,0.3,0,0.5,0,0.6c-0.1,0.1-0.2,0.4-0.2,0.7c0,0.3,0,0.5,0.1,0.6
		C29.1,25,29,25.2,29,25.4c0,0.3,0,0.5,0.1,0.6c0,1,0,2,0,3h2.1c0-0.8,0.1-1.6,0.1-2.4c0.1-1.3,0.4-2.7,1-3.9l0,0c0,0,0-0.1,0-0.1
		c0,0-0.1,0-0.1,0c-0.9,1.1-1.3,2.5-1.6,3.9c0,0.3-0.1,0.5-0.1,0.8c0.1-1.1,0.2-2.2,0.4-3.3c0.3-1.3,0.9-2.5,2-3.2
		c0,0,0.1-0.1,0-0.1c0-0.1-0.1-0.1-0.1-0.1c-0.1,0-0.1,0.1-0.2,0.1c-0.1-0.1-0.3,0-0.6,0.2c-0.3,0.2-0.4,0.4-0.4,0.5c0,0,0,0,0,0
		c0,0,0,0,0,0c-0.1-0.1-0.4,0.1-0.6,0.4c-0.2,0.3-0.3,0.6-0.2,0.7c0,0,0,0,0,0c-0.1,0-0.3,0.2-0.4,0.6c-0.1,0.3-0.1,0.5-0.1,0.6
		c0,0,0,0,0,0c-0.1,0.3-0.2,0.6-0.2,0.9c0-0.4,0.1-0.9,0.1-1.3c0.2-1.3,0.6-2.5,1.2-3.5c0.7-1.1,1.6-1.9,2.4-2.9c0,0,0-0.1,0-0.1
		c0,0-0.1,0-0.1,0c-0.2,0.2-0.4,0.4-0.6,0.6c-0.1,0-0.3,0-0.5,0.2c-0.2,0.1-0.3,0.3-0.3,0.4c-0.1,0-0.3,0.1-0.5,0.4
		c-0.2,0.2-0.2,0.4-0.2,0.6c-0.1,0-0.3,0.2-0.4,0.4c-0.1,0.2-0.2,0.3-0.2,0.4c-0.1,0.1-0.2,0.2-0.3,0.4c-0.1,0.2-0.2,0.4-0.2,0.6
		c0,0.1-0.1,0.1-0.1,0.2c0,0,0-0.1,0-0.1c0.2-1.5,0.5-3,0.9-4.5c0.4-1.4,0.9-2.9,1.8-4.1l0,0c0-0.1,0-0.2,0-0.2
		c-0.1-0.1-0.1-0.1-0.2,0c-0.3,0.3-0.6,0.7-0.8,1C32,13.1,31.8,13.3,31.6,13.6z"/>
	<path d="M39.2,12.5c-0.1,0.1-0.2,0.2-0.3,0.3c-0.1,0.1-0.1,0.3-0.1,0.4c0,0.1,0.1,0.2,0.2,0.3c0.1,0.1,0.2,0.1,0.3,0
		c0.1-0.1,0.2-0.2,0.3-0.3c0.1-0.1,0.1-0.3,0.1-0.4c0-0.7,0.8-1.6,0.7-1.7C40.3,11,39.8,12.2,39.2,12.5z"/>
	<path d="M35.8,5.1h0.7c1,0,1.7-0.2,2.3-0.7c0.5-0.4,0.8-1.1,0.8-1.9c0-0.8-0.2-1.4-0.7-1.8C38.3,0.2,37.6,0,36.6,0h-2.5v7.9h1.7
		V5.1z M35.8,1.4h0.8c0.5,0,0.8,0.1,1,0.3c0.2,0.2,0.3,0.5,0.3,0.9c0,0.4-0.1,0.7-0.4,0.9c-0.3,0.2-0.6,0.3-1.1,0.3h-0.5V1.4z"/>
	<path d="M4.9,20.6c2.1-2.2,5.4-3.6,6.5-6.6c0,0,0-0.1-0.1,0c-1.8,1.4-4.7,2.8-5.3,3.9c0,0,0,0,0,0l0.7-3.3c0.3-1.4,0.6-2.7,1.3-4
		c0,0,0-0.1-0.1-0.1C4.5,13.3,5,17.3,4.9,20.6C4.8,20.6,4.9,20.6,4.9,20.6z"/>
	<path d="M39.4,13.8c-0.1,0-0.3,0-0.4,0c-0.1,0-0.1,0.1-0.2,0.1c0,0,0-0.1,0-0.1c0-0.2-0.1-0.3-0.2-0.4c-0.4-0.5,0.2-1.8,0.1-1.9
		c-0.1,0-0.3,1.3-0.7,1.9c-0.1,0.1-0.1,0.3-0.1,0.4c0,0.2,0.1,0.3,0.2,0.4c0.1,0.1,0.2,0.2,0.3,0.1c0.1,0,0.2-0.1,0.2-0.1
		c0,0.1,0,0.1,0,0.2c0.1,0.1,0.2,0.2,0.3,0.2c0.1,0,0.3,0,0.4,0c0.1-0.1,0.2-0.2,0.3-0.3c0.3-0.6,1.3-1.5,1.2-1.6
		C40.8,12.7,40.1,13.9,39.4,13.8z"/>
	<path d="M16.9,22.6c0,0.1,0,0.2,0,0.3c-1.4-1.6-4.7-3.5-5.9-4.2c-0.1,0-0.1,0-0.2,0c-0.1,0.1-0.1,0.2,0,0.2c2.8,2.7,5.2,6,7.6,12.9
		c1.2-1.2,3.3-2.8,6.4-2.8h3.6c-2.3-8.4,1-11.4-2-15.3c0,0-0.1-0.1-0.1-0.1c-0.1,0-0.1,0.1-0.1,0.2c1.2,3.2-0.3,4.8-1,7.1
		c-0.8-1.8,1.8-3.6,0.5-6.9c0,0-0.1-0.1-0.1-0.1c-0.1,0-0.1,0-0.1,0.1c0,0.2-0.2,2.1-1.7,3.2c-0.2-0.4-0.4-0.7-0.7-1
		c-0.1-0.6-0.5-1.5-1.4-1.7c-0.1-0.3-0.4-0.8-0.9-1c-0.5-0.2-1-0.2-1.6,0.1c-0.7,0.1-1.2,0.4-1.5,0.8c-0.2,0.4-0.2,0.9-0.1,1.3
		c-0.6,0.7-0.6,1.6-0.6,2c-0.4,0.9-0.2,1.9,0,2.3C16.3,21.1,16.7,22.2,16.9,22.6z M17.3,22.7c-0.4-0.8,1-1.8,1.4-0.8
		C19.1,22.7,17.7,23.6,17.3,22.7z M19.9,18.3c0.3,0.3,0.3,0.9-0.2,1c-0.3,0.1-0.6,0.2-0.8-0.1c-0.3-0.3-0.2-0.9,0.2-1
		C19.3,18.1,19.7,18,19.9,18.3z M19.7,16c-0.2-0.6,0.9-1,1-0.3C21,16.3,19.9,16.6,19.7,16z M18.8,24.6c-0.1,0-0.1,0.1-0.1,0.1
		l-0.8-0.8c0,0,0.2-0.2,0.3-0.2C18.8,23.2,19.4,24.3,18.8,24.6z M18.9,20.7c-0.3-0.9,1.3-1.4,1.6-0.4C20.8,21.3,19.2,21.7,18.9,20.7
		z M19.2,22.8c-0.3-1,1.4-1.5,1.7-0.5C21.1,23.3,19.4,23.8,19.2,22.8z M20.7,19.2c-0.2-0.8,1.2-1.2,1.4-0.4
		C22.3,19.6,20.8,20,20.7,19.2z M22.6,20.5c0.2,0.4,0.1,1-0.4,1.1c-0.3,0.1-0.7,0.1-1-0.2c-0.3-0.4-0.2-1.2,0.4-1.2
		C21.9,20.2,22.3,20.1,22.6,20.5z M19.4,24.8c-0.3-1,1.4-1.5,1.7-0.5C21.4,25.4,19.7,25.8,19.4,24.8z M21.4,26.7
		c-0.1,0.4-0.4,0.4-0.7,0.5c-0.2-0.3-0.8-0.9-0.8-1c0,0,0-0.1,0-0.1c0-0.1,0.1-0.2,0.2-0.2c0.2-0.1,0.6-0.2,0.8-0.2
		C21.3,25.8,21.5,26.3,21.4,26.7z M21.8,22.2c0.4-0.1,0.8-0.2,1.1,0.1c0.3,0.4,0.2,1.1-0.3,1.3c-0.3,0.1-0.8,0.2-1.1-0.1
		C21.2,23.2,21.2,22.4,21.8,22.2z M22.2,24.3c0.4-0.1,0.8-0.2,1.1,0.1c0.3,0.4,0.2,1-0.3,1.2c-0.3,0.1-0.7,0.2-1-0.1
		C21.6,25.2,21.6,24.4,22.2,24.3z M23.7,27.4c0,0.2-0.3,0.2-0.5,0.3c-0.5,0.1-1,0.1-1.1-0.5c-0.2-0.6,0.3-0.9,0.8-1
		c0.3-0.1,0.5,0,0.7,0.2c0,0.1,0.1,0.1,0.1,0.2C23.9,26.5,23.8,27.3,23.7,27.4z M24.1,24.7c0,0.1,0,0.2,0,0.2
		c-0.3-0.2-0.4-0.5-0.3-0.8c0.1-0.2,0.3-0.3,0.5-0.3C24.2,24.1,24.2,24.4,24.1,24.7z M24.6,22.5c0,0.1-0.2,0.8-0.2,0.8
		c-0.1,0-0.3,0-0.3,0c-0.4,0-0.8-0.4-0.6-0.8c0.1-0.4,0.4-0.4,0.7-0.4c0.1,0,0.4,0,0.5,0.1C24.7,22.2,24.7,22.4,24.6,22.5z
		 M24.3,20.4c0.3,0.4,0.2,1-0.3,1.1c-0.3,0-0.6,0-0.8-0.2c-0.3-0.4-0.2-1,0.3-1.1C23.7,20.1,24.1,20.2,24.3,20.4z M23.5,18.4
		c0.5,0.2,0.6,0.8,0.3,1.1c-0.2,0.2-0.5,0.1-0.7,0.1c-0.4-0.1-0.7-0.8-0.3-1.1C22.9,18.3,23.3,18.3,23.5,18.4z M22.6,16.8
		c0.4,0,0.6,0.6,0.4,0.9c-0.1,0.2-0.4,0.2-0.6,0.2c-0.4-0.1-0.6-0.5-0.4-0.9C22.1,16.7,22.3,16.8,22.6,16.8z M21.5,15.2
		c0.2-0.1,0.4,0,0.6,0.1c0.3,0.3,0.2,0.7-0.2,0.8c-0.2,0-0.4,0-0.6-0.1C21.1,15.9,21.1,15.3,21.5,15.2z M21.5,17.2
		c0.2,0.7-1,1.1-1.2,0.4C20,16.8,21.2,16.5,21.5,17.2z M19.9,13.9c0.2-0.1,0.5-0.2,0.7,0c0.3,0.2,0.2,0.7-0.1,0.9
		c-0.2,0.1-0.5,0.2-0.7,0C19.6,14.5,19.5,14.1,19.9,13.9z M19.8,17c0.2,0.6-0.9,1-1.1,0.4C18.5,16.8,19.6,16.4,19.8,17z M18.1,16
		c-0.2-0.6,0.8-0.9,1-0.3C19.3,16.3,18.3,16.6,18.1,16z M18.3,14.2c0.2-0.1,0.5-0.2,0.7,0c0.2,0.2,0.1,0.6-0.1,0.7
		c-0.2,0.1-0.5,0.1-0.7-0.1C18,14.7,18,14.4,18.3,14.2z M17.4,16.6c0.2-0.1,0.4-0.2,0.6-0.1c0.3,0.1,0.3,0.6,0.1,0.8
		c-0.1,0.1-0.3,0.2-0.5,0.2C17.2,17.3,17.1,16.8,17.4,16.6z M17.4,18.2c0.2-0.2,0.4-0.3,0.7-0.2c0.4,0.2,0.4,0.7,0.1,1
		c-0.1,0.1-0.4,0.2-0.6,0.2C17.1,19.1,17,18.5,17.4,18.2z M18.5,20.1c0.4,0.8-0.9,1.6-1.3,0.8C16.9,20.1,18,19.3,18.5,20.1z"/>
	<polygon points="30,4.7 32.6,4.7 32.6,3.4 30,3.4 30,1.4 32.8,1.4 32.8,0 28.3,0 28.3,7.9 30,7.9 	"/>
	<path d="M7.6,15c4.3-3.1,4-4.5,6.4-6c0,0,0-0.1,0-0.1C10.8,9,8.5,11.6,7.6,15C7.5,15,7.6,15,7.6,15z"/>
	<path d="M20.7,7.9l1.1-4.1c0-0.2,0.1-0.5,0.2-0.9c0.1-0.4,0.1-0.7,0.2-0.9c0,0.2,0.1,0.5,0.2,0.9s0.2,0.8,0.2,0.9l1.1,4.1h1.9
		l2-7.9h-1.6l-1,4.3c-0.1,0.3-0.1,0.6-0.2,1c-0.1,0.4-0.1,0.8-0.2,1c0-0.3-0.1-0.6-0.2-1c-0.1-0.4-0.1-0.7-0.2-0.9L22.9,0h-1.6
		l-1.1,4.4c-0.1,0.2-0.1,0.6-0.2,1c-0.1,0.4-0.1,0.7-0.1,0.9c-0.1-0.6-0.2-1.3-0.4-2.1l-1-4.3h-1.6l2,7.9H20.7z"/>
</g>
</svg>
