<svg xmlns="http://www.w3.org/2000/svg" width="78.34mm" height="20mm" viewBox="0 0 222.06 56.69"><title>en-full</title><path d="M42.77 8.91c-.05 0-.07.07 0 .09 2.32 1.5 2.08 2.84 6.36 6-.97-3.38-3.25-6-6.36-6.09zm5.95 1.56s-.08 0 0 0a12.09 12.09 0 0 1 1.34 4l.69 3.29c-.61-1-3.42-2.41-5.27-3.85h-.06c1 3.05 4.42 4.36 6.49 6.61h.06c-.24-3.24.27-7.27-3.25-10.05zm6 10.63a9.43 9.43 0 0 0-1.93-5.84h-.07c.91 3.35-.06 6.28.31 8.8h-.05c-.93-2.25-3.45-3.35-4.58-4.91h-.07c1 4.45 4.36 5.86 5 8.21 0 0 .06.05.07 0 .51-1.7 1.44-3.62 1.35-6.26zm1.18 2.43h-.09c-.08 3.28-2 5.82-2.39 8.09-.07-2.94-2.19-4.71-3.38-6.93h-.08c-.18 4.25 2.89 6.89 2.79 10.44h.08c2.41-3.28 4.68-7.33 3.1-11.6zm.76 8.78a.05.05 0 0 0-.1 0c-1.48 3-3.25 3.67-5.49 6.94.88-2.64-.57-6.14-.62-8.48 0 0-.07-.05-.09 0-1.77 4.29.1 8.7-1.46 11.59v.05a17.39 17.39 0 0 0 5.92-4.83 8.72 8.72 0 0 0 1.87-5.27zm-2.21 8c-1.55 2.16-5 3-8.41 5.63 1.71-2.28 1.52-5.4 2.15-8.14h-.06c-3.29 3.72-2.87 7.79-4.32 9.69v.06c5 0 10.33-4.36 10.71-7.15.03-.14-.02-.15-.04-.13zm-4.73 7.45c-4.36 2-6.12.86-10.28 1.66 2.91-1.57 3.45-4.11 4.46-5.77-3.2 1.56-4.24 5.15-8.07 6.07v.07c1.61.38 2.83 1.09 4.51 1.23 4.66.4 8.07-1 9.5-3.11l-.09-.19zM13.92 8.91c-3.1.1-5.39 2.71-6.37 6 4.28-3.14 4-4.48 6.36-6 .09.09.09 0 .01 0zM11.31 14C9.46 15.4 6.64 16.8 6 17.81l.68-3.29a12.32 12.32 0 0 1 1.34-4s0-.08 0 0c-3.52 2.78-3 6.81-3.16 10.11h.07C7 18.36 10.32 17.05 11.37 14c.01 0-.03-.07-.06 0zm-3.05 5.2c-1.12 1.56-3.65 2.66-4.57 4.91 0 0-.06 0 0 0C4 21.58 3 18.65 4 15.3h-.08A9.36 9.36 0 0 0 2 21.1c-.1 2.64.83 4.56 1.29 6.35h.08c.66-2.35 4-3.76 5-8.21l-.11-.04zm-1.51 5.52h-.09c-1.19 2.22-3.31 4-3.38 6.93-.42-2.28-2.34-4.82-2.43-8.1H.76c-1.58 4.27.7 8.32 3.12 11.66h.08c-.1-3.6 2.97-6.21 2.79-10.49zm1.06 17.61c-1.56-2.89.3-7.3-1.47-11.59h-.08c-.06 2.34-1.51 5.84-.63 8.48-2.23-3.27-4-4-5.49-6.94H.05a8.64 8.64 0 0 0 1.82 5.24 17.33 17.33 0 0 0 5.93 4.83s.02.01.01-.02zm5.08 5.06c-1.45-1.9-1-6-4.32-9.69H8.5c.63 2.74.44 5.86 2.16 8.14-3.39-2.67-6.87-3.47-8.42-5.63h-.06c.38 2.79 5.75 7.14 10.71 7.15v.03zm8 2.2c-3.82-.92-4.87-4.51-8.07-6.07h-.05c1 1.66 1.56 4.2 4.46 5.77-4.17-.8-5.92.31-10.29-1.66l-.05.06c1.43 2.08 4.84 3.51 9.51 3.11 1.68-.14 2.89-.85 4.5-1.23v.02zM45 52.12a8.6 8.6 0 0 1-5.05.22c-3.66-1.14-7.73-3.3-11.63-1.51-3.9-1.79-8 .37-11.63 1.51a8.63 8.63 0 0 1-5.06-.22s-.07 0 0 .06a8.44 8.44 0 0 0 7.91 1.46c2.61-.82 4.82-3.59 7.92-2.4a21.23 21.23 0 0 0-6.52 4.4l1.29 1a21.54 21.54 0 0 1 5.47-4.88 1.45 1.45 0 0 1 .65-.25 1.46 1.46 0 0 1 .64.25 21.54 21.54 0 0 1 5.47 4.88l1.29-1a21 21 0 0 0-6.52-4.4c3.1-1.19 5.31 1.58 7.93 2.4a8.45 8.45 0 0 0 7.91-1.46s.01-.08-.07-.06zM30.08 42h-5.94a6.32 6.32 0 0 1-1.14-.14 10.17 10.17 0 0 0 4.06 3.29 13 13 0 0 0 .65 2.64 4.16 4.16 0 0 0 1.68-.48c0-.14-.63-2.41-.63-2.41a12.31 12.31 0 0 0 1.32-2.9zm10.36-30.89c-.15-.11-.63 1.08-1.19 1.38a.72.72 0 0 0-.35.71.37.37 0 0 0 .16.29.34.34 0 0 0 .31 0 .68.68 0 0 0 .28-.3.7.7 0 0 0 .08-.41c-.04-.67.81-1.6.71-1.67zm.43 1.69c-.09-.09-.81 1.12-1.47 1a.52.52 0 0 0-.4 0 .5.5 0 0 0-.17.11v-.09a.73.73 0 0 0-.17-.39c-.44-.54.17-1.82 0-1.86s-.33 1.31-.69 1.9a.62.62 0 0 0-.1.41.67.67 0 0 0 .17.4.44.44 0 0 0 .34.14.35.35 0 0 0 .24-.12.38.38 0 0 0 0 .17.45.45 0 0 0 .28.24.51.51 0 0 0 .4 0 .55.55 0 0 0 .29-.29c.41-.66 1.41-1.53 1.28-1.62zm-.25 1.48c-.08-.12-1.09 1.07-1.78.77a.63.63 0 0 0-.45 0 .56.56 0 0 0-.24.13.53.53 0 0 0 0-.13.66.66 0 0 0-.25-.4c-.58-.51-.13-2-.26-2.06s-.14 1.51-.44 2.23a.68.68 0 0 0 0 .47.69.69 0 0 0 .25.4.44.44 0 0 0 .39.09.3.3 0 0 0 .16-.08.58.58 0 0 0 .27.32.59.59 0 0 0 .45 0 .58.58 0 0 0 .36-.26c.39-.61 1.63-1.36 1.54-1.48zm-2.44 2.17a.73.73 0 0 0-.49 0 .71.71 0 0 0-.32.17 1 1 0 0 0 0-.35.86.86 0 0 0-.25-.45c-.57-.57-.18-2.29-.31-2.31s-.09 1.7-.36 2.5a1 1 0 0 0 0 .53.87.87 0 0 0 .26.45.4.4 0 0 0 .38.1.21.21 0 0 0 .1 0v.06a.46.46 0 0 0 .27.32.76.76 0 0 0 .48 0 .92.92 0 0 0 .43-.26c.54-.63 1.8-1.52 1.73-1.64s-1.19 1.16-1.92.88zm-6.66 3.49A26 26 0 0 1 34 17.07a.09.09 0 0 0 0-.13.07.07 0 0 0-.12 0c-.18.2-.38.38-.58.57-.08 0-.3 0-.53.22a1.06 1.06 0 0 0-.34.4c-.11 0-.33.11-.52.35a1.07 1.07 0 0 0-.25.55c-.12 0-.29.17-.44.41a1.24 1.24 0 0 0-.18.45 1.22 1.22 0 0 0-.31.35 1 1 0 0 0-.18.58 1.4 1.4 0 0 0-.09.17v-.13a27.75 27.75 0 0 1 .9-4.46 12.72 12.72 0 0 1 1.8-4.06.17.17 0 0 0 0-.21.13.13 0 0 0-.2 0 6.71 6.71 0 0 0-.79 1.05c-.1-.05-.31.15-.47.45a.89.89 0 0 0-.14.64c-.1 0-.3.19-.42.51s-.13.56-.05.65c-.12 0-.31.22-.43.6a1 1 0 0 0 0 .71c-.12 0-.31.23-.41.61s-.1.69 0 .75c-.12 0-.28.26-.37.64a1.1 1.1 0 0 0 0 .71c-.11 0-.24.31-.3.66a1 1 0 0 0 .05.72c-.11.05-.22.33-.26.68a1 1 0 0 0 .1.71 1.24 1.24 0 0 0-.21.63 1.25 1.25 0 0 0 0 .64 1.1 1.1 0 0 0-.18.69 1.59 1.59 0 0 0 .1.62 1.66 1.66 0 0 0-.09.55 1.5 1.5 0 0 0 .11.64c0 1 0 2 .05 3h2.12c0-.77.06-1.6.14-2.36a9.61 9.61 0 0 1 1-3.87.12.12 0 0 0 0-.13.09.09 0 0 0-.13 0 7.91 7.91 0 0 0-1.56 3.89c0 .27-.07.54-.1.81a17.51 17.51 0 0 1 .41-3.26 4.83 4.83 0 0 1 2-3.19.08.08 0 0 0 0-.11.09.09 0 0 0-.11-.07l-.2.09c-.07-.09-.35 0-.62.16s-.44.38-.43.5-.37.1-.6.42-.31.64-.22.73-.31.22-.44.59a1.37 1.37 0 0 0-.08.65c-.09.3-.17.61-.24.92 0-.44.07-.88.13-1.32a8.93 8.93 0 0 1 1.2-3.5zm5.35 6a.15.15 0 0 0-.23 0A13.67 13.67 0 0 0 34.49 29h.71a12 12 0 0 1 1.65-2.81.18.18 0 0 0 .02-.19zm-1 20.9c-.22-.61-.52-1.16-.76-1.74s-.5-1.16-.7-1.76-.36-1-.49-1.43h-.66c.19.54.43 1.13.65 1.66a18.24 18.24 0 0 0 1.8 3.43.1.1 0 0 0 .12 0 .11.11 0 0 0 .07-.11zm-.23-2.56c-.18-.73-.37-1.62-.53-2.38h-.68c.27.81.62 1.71.93 2.48a.15.15 0 0 0 .17.09.15.15 0 0 0 .14-.14zm-1.79 2l-1-4.35h-1.79a14.72 14.72 0 0 0 1.2 3.21.17.17 0 0 0 .16.09.17.17 0 0 0 .14-.19c-.12-.92-.27-1.81-.4-2.7a18.23 18.23 0 0 0 1.56 4 .08.08 0 0 0 .09.05.11.11 0 0 0 .07-.09zm9.26-28.23c-.65-.17-4.81-.9-9.47 7.66A37.93 37.93 0 0 1 37 17.56a.14.14 0 0 0 0-.19.13.13 0 0 0-.19 0C33.68 22.53 32.59 25.49 32 29h1.93c.32-3.42 4.63-11.45 9.23-10.86h.05a.05.05 0 0 0-.07-.07zM26.3 13.71a.13.13 0 0 0-.13-.05.12.12 0 0 0-.08.15c1.2 3.24-.34 4.84-1 7.1-.77-1.84 1.79-3.57.47-6.93a.12.12 0 0 0-.1-.08.11.11 0 0 0-.14.1 4.57 4.57 0 0 1-1.7 3.19 2.87 2.87 0 0 0-.7-1 2.24 2.24 0 0 0-1.41-1.74 1.92 1.92 0 0 0-.89-1 1.77 1.77 0 0 0-1.61.06 1.84 1.84 0 0 0-1.5.84 1.76 1.76 0 0 0-.12 1.27 2.94 2.94 0 0 0-.63 2 3.84 3.84 0 0 0 0 2.33 3.77 3.77 0 0 0 .16 2.73v.3A31.3 31.3 0 0 0 11 18.69a.15.15 0 0 0-.18 0 .16.16 0 0 0 0 .22c2.77 2.7 5.24 6 7.61 13A8.81 8.81 0 0 1 24.78 29h3.56c-2.26-8.4 1.03-11.42-2.04-15.29zm-2 6.67c.31.37.19 1-.33 1.05a1 1 0 0 1-.83-.24c-.29-.36-.18-1 .35-1.06a1 1 0 0 1 .77.25zm-.75-2a.66.66 0 0 1 .3 1.08.92.92 0 0 1-.73.09c-.45-.09-.74-.76-.35-1.08a.87.87 0 0 1 .74-.11zm-2 1.86c.39 0 .8-.13 1 .28a.75.75 0 0 1-.44 1.13.94.94 0 0 1-1-.19c-.26-.41-.11-1.18.42-1.24zm-.87-1.07c-.24-.83 1.18-1.21 1.4-.38s-1.23 1.21-1.42.36zm1.91-2.39c.39 0 .59.58.36.87a.73.73 0 0 1-.64.15.56.56 0 0 1-.37-.87c.14-.22.4-.17.63-.17zm-1.05-1.53a.58.58 0 0 1 .61.14.47.47 0 0 1-.21.8.77.77 0 0 1-.58-.1.49.49 0 0 1 .16-.86zm-.07 1.95c.24.73-1 1.11-1.21.4s.99-1.14 1.19-.42zM19.71 16c-.19-.64.85-1 1.05-.35s-.87.99-1.05.35zm0 3.28c-.3.07-.61.19-.85-.06a.64.64 0 0 1 .2-1 .77.77 0 0 1 .84.06c.29.27.26.9-.19 1.01zm.19-5.38a.7.7 0 0 1 .7 0 .52.52 0 0 1-.1.86.66.66 0 0 1-.69 0 .52.52 0 0 1 .09-.85zm-.14 3.14c.23.64-.85 1-1.07.37s.88-1 1.07-.36zm-1.62-1c-.16-.6.85-.88 1-.27s-.84.85-1 .23zm.16-1.81a.54.54 0 0 1 .67.05.46.46 0 0 1-.14.73.53.53 0 0 1-.66-.05.48.48 0 0 1 .13-.76zm-.89 2.38a.62.62 0 0 1 .56-.13.47.47 0 0 1 .05.81.69.69 0 0 1-.49.16.49.49 0 0 1-.12-.87zm-.05 1.67a.58.58 0 0 1 .66-.16.57.57 0 0 1 .05 1 .85.85 0 0 1-.57.18.57.57 0 0 1-.14-1.05zm1.11 1.81c.44.78-.88 1.65-1.26.81s.84-1.59 1.26-.84zm-1.16 2.66c-.38-.84 1-1.75 1.42-.84s-1 1.73-1.42.81zm1.46 1.89c-.08.05-.11.07-.14.07l-.77-.84a3.22 3.22 0 0 1 .33-.24c.64-.39 1.17.63.58.98zm.16-3.87c-.28-.95 1.34-1.37 1.59-.43s-1.37 1.35-1.59.4zm.25 2c-.3-1 1.43-1.46 1.69-.46s-1.46 1.45-1.69.44zm.25 2c-.29-1 1.43-1.47 1.69-.46s-1.46 1.49-1.69.48zm2 1.9c-.1.37-.41.43-.73.51a11.31 11.31 0 0 1-.78-1 .31.31 0 0 1 0-.09.47.47 0 0 1 .18-.19 1.39 1.39 0 0 1 .82-.18.76.76 0 0 1 .51.97zm.38-4.44c.4-.1.82-.25 1.13.15a.81.81 0 0 1-.31 1.26 1 1 0 0 1-1.06-.07c-.38-.35-.35-1.18.24-1.32zm.37 2.06c.39-.1.78-.24 1.08.14a.76.76 0 0 1-.26 1.21.94.94 0 0 1-1-.06c-.41-.35-.38-1.14.18-1.27zm1.56 3.12c0 .18-.28.21-.45.26-.5.15-1 .08-1.12-.51s.32-.9.83-1a.68.68 0 0 1 .73.23c.05.06.11.11.12.17s-.07.69-.11.87zm.38-2.7v.25a.73.73 0 0 1-.29-.84.56.56 0 0 1 .52-.3c-.11.32-.17.61-.23.91zm.49-2.18c0 .09-.21.81-.21.81a.93.93 0 0 1-.33 0 .66.66 0 0 1-.64-.84c.13-.36.4-.4.75-.42a1.11 1.11 0 0 1 .53.12zm17.69-1.25c-.1-.15-1 .79-1.59.88a.63.63 0 0 0-.36.17.74.74 0 0 0-.22.36.37.37 0 0 0 .06.33.34.34 0 0 0 .3.11.68.68 0 0 0 .36-.18.82.82 0 0 0 .22-.36c.19-.59 1.31-1.21 1.23-1.31zm-1.89 2.13a.57.57 0 0 0-.39-.1.46.46 0 0 0-.2.05v-.08a.69.69 0 0 0 0-.43c-.23-.67.79-1.65.69-1.73s-.76 1.12-1.31 1.53a.66.66 0 0 0-.2.35.7.7 0 0 0 0 .43.47.47 0 0 0 .27.25.37.37 0 0 0 .27 0 .51.51 0 0 0 0 .17.47.47 0 0 0 .19.33.55.55 0 0 0 .38.11.58.58 0 0 0 .37-.17c.49-.5 1.72-1 1.67-1.08s-1.15.74-1.74.37zm-1 1a.6.6 0 0 0-.4-.2.61.61 0 0 0-.27 0v-.13a.75.75 0 0 0-.11-.46c-.36-.68.59-2 .47-2S38.52 23 38 23.57a.66.66 0 0 0-.19.43.7.7 0 0 0 .1.46.49.49 0 0 0 .33.23.52.52 0 0 0 .18 0 .55.55 0 0 0 .14.39.67.67 0 0 0 .41.2.63.63 0 0 0 .43-.12c.62-.45 2-.71 2-.85s-1.4.62-1.96.1zm-1.1 1.07a.76.76 0 0 0-.44-.21.85.85 0 0 0-.36.05.91.91 0 0 0 .1-.33.83.83 0 0 0-.08-.51c-.34-.74.62-2.21.5-2.28s-.66 1.56-1.19 2.22a.91.91 0 0 0-.2.49.85.85 0 0 0 .09.51.4.4 0 0 0 .42.23v.06a.47.47 0 0 0 .14.38.73.73 0 0 0 .45.21.79.79 0 0 0 .49-.09c.72-.4 2.21-.78 2.18-.92s-1.48.71-2.07.19zM23.4 32.1a11.78 11.78 0 0 0-5.49 1.49v-.05a8.74 8.74 0 0 1 6.91-3.83h10.37a1.21 1.21 0 0 1 0 2.39zm.74 9.19c-3.38 0-3.65-2.49-8.65-3v-.07c4.11-1 5.64.72 8 .72h11.7a1.22 1.22 0 0 1 0 2.4zm-.24-3c-3.29 0-4.24-1.87-9.22-.63 0 0-.06 0 0-.06a11.55 11.55 0 0 1 7-1.73h13.51a1.22 1.22 0 0 1 0 2.4zm-2.51-3.08a15 15 0 0 0-5.55.94s-.05 0 0 0A10.67 10.67 0 0 1 24 32.77h11.19a1.22 1.22 0 0 1 0 2.4zm4.07-27.36h-1.9L22.5 3.73c0-.15-.11-.45-.2-.91a7.38 7.38 0 0 1-.16-.93c0 .19-.08.51-.17.93s-.15.74-.19.92l-1.06 4.11h-1.89L16.82 0h1.64l1 4.29c.17.79.3 1.47.38 2.05 0-.2.07-.52.15-.94a8.75 8.75 0 0 1 .21-1L21.36 0h1.57l1.14 4.4c.05.2.12.5.19.9s.14.75.17 1c0-.28.1-.62.18-1s.15-.76.21-1l1-4.29h1.64zm4.53 0h-1.64V0h4.5v1.36H30v2h2.66v1.39H30zm9.53-5.4a2.41 2.41 0 0 1-.79 1.94 3.38 3.38 0 0 1-2.25.67h-.72v2.79H34.1V0h2.51a3.28 3.28 0 0 1 2.17.62 2.25 2.25 0 0 1 .74 1.83zM35.76 3.7h.55a1.86 1.86 0 0 0 1.15-.31 1.07 1.07 0 0 0 .38-.88 1.12 1.12 0 0 0-.32-.87 1.53 1.53 0 0 0-1-.28h-.76zM72.19 34H69.7l-1.4-5.43c-.06-.2-.14-.6-.27-1.2a11.82 11.82 0 0 1-.21-1.22c0 .25-.1.66-.22 1.23s-.2 1-.26 1.2L66 34h-2.54l-2.64-10.32H63l1.32 5.64c.23 1 .4 1.95.5 2.71 0-.27.1-.68.2-1.25a13.31 13.31 0 0 1 .29-1.31l1.5-5.79h2.07l1.51 5.79c.06.26.15.66.24 1.19s.18 1 .23 1.37c0-.37.12-.83.23-1.38s.2-1 .28-1.33l1.31-5.64h2.16zm10.3-4a4.25 4.25 0 0 1-1 3 3.71 3.71 0 0 1-2.83 1.09 4 4 0 0 1-2-.5 3.31 3.31 0 0 1-1.34-1.43 4.83 4.83 0 0 1-.46-2.18 4.2 4.2 0 0 1 1-3 3.69 3.69 0 0 1 2.82-.98 4 4 0 0 1 2 .5A3.27 3.27 0 0 1 82 27.88a4.78 4.78 0 0 1 .49 2.17zm-5.47 0a3.27 3.27 0 0 0 .39 1.77 1.4 1.4 0 0 0 1.26.61 1.37 1.37 0 0 0 1.24-.6 3.4 3.4 0 0 0 .37-1.78 3.22 3.22 0 0 0-.38-1.76 1.61 1.61 0 0 0-2.49 0 3.19 3.19 0 0 0-.41 1.81zm11.19-4a3.53 3.53 0 0 1 .73.07l-.16 2a2.36 2.36 0 0 0-.64-.07 2.33 2.33 0 0 0-1.61.53A1.92 1.92 0 0 0 86 30v4h-2.2v-7.89h1.64l.31 1.33h.11a3.08 3.08 0 0 1 1-1.07 2.47 2.47 0 0 1 1.35-.37zM92 34h-2.12V23H92zm4.36.14a2.57 2.57 0 0 1-2.19-1.08 5 5 0 0 1-.79-3 5 5 0 0 1 .81-3A2.64 2.64 0 0 1 96.46 26a2.58 2.58 0 0 1 2.27 1.16h.07a8.6 8.6 0 0 1-.16-1.57V23h2.16v11h-1.65l-.42-1h-.09a2.47 2.47 0 0 1-2.24 1.16zm.76-1.72a1.46 1.46 0 0 0 1.25-.42 2.75 2.75 0 0 0 .42-1.63v-.24a3.23 3.23 0 0 0-.39-1.82 1.46 1.46 0 0 0-1.28-.55 1.26 1.26 0 0 0-1.12.61 3.24 3.24 0 0 0-.4 1.78 3.1 3.1 0 0 0 .4 1.75 1.33 1.33 0 0 0 1.16.54zM108.33 34h-2.15V23.68h5.92v1.8h-3.77v2.66h3.51v1.79h-3.51zm12.31-4a4.24 4.24 0 0 1-1 3 3.73 3.73 0 0 1-2.84 1.09 4 4 0 0 1-2-.5 3.29 3.29 0 0 1-1.33-1.43 4.83 4.83 0 0 1-.47-2.18 4.25 4.25 0 0 1 1-3 3.71 3.71 0 0 1 2.83-.98 4 4 0 0 1 2 .5 3.29 3.29 0 0 1 1.34 1.42 4.78 4.78 0 0 1 .47 2.13zm-5.46 0a3.37 3.37 0 0 0 .38 1.77 1.4 1.4 0 0 0 1.26.61 1.35 1.35 0 0 0 1.24-.6 3.39 3.39 0 0 0 .38-1.78 3.31 3.31 0 0 0-.38-1.76 1.62 1.62 0 0 0-2.5 0 3.29 3.29 0 0 0-.38 1.81zm14 0a4.25 4.25 0 0 1-1 3 3.71 3.71 0 0 1-2.83 1.09 4 4 0 0 1-2-.5 3.31 3.31 0 0 1-1.35-1.36 4.83 4.83 0 0 1-.46-2.18 4.2 4.2 0 0 1 1-3 3.69 3.69 0 0 1 2.84-1.05 4 4 0 0 1 2 .5 3.27 3.27 0 0 1 1.33 1.42 4.78 4.78 0 0 1 .48 2.13zm-5.46 0a3.28 3.28 0 0 0 .38 1.77 1.39 1.39 0 0 0 1.25.61 1.37 1.37 0 0 0 1.25-.6 3.4 3.4 0 0 0 .37-1.78 3.22 3.22 0 0 0-.38-1.76 1.61 1.61 0 0 0-2.49 0 3.2 3.2 0 0 0-.37 1.81zm9.36 4.11a2.57 2.57 0 0 1-2.19-1.08 5 5 0 0 1-.79-3 5 5 0 0 1 .8-3 2.65 2.65 0 0 1 2.24-1.03 2.58 2.58 0 0 1 2.28 1.16h.07a8.6 8.6 0 0 1-.16-1.57V23h2.16v11h-1.65l-.42-1h-.09a2.47 2.47 0 0 1-2.24 1.16zm.75-1.72a1.47 1.47 0 0 0 1.22-.48 2.91 2.91 0 0 0 .42-1.63v-.24a3.14 3.14 0 0 0-.4-1.82 1.44 1.44 0 0 0-1.27-.55 1.25 1.25 0 0 0-1.12.61 3.24 3.24 0 0 0-.4 1.78 3.1 3.1 0 0 0 .4 1.75 1.31 1.31 0 0 0 1.16.63zM150 26.9a3.15 3.15 0 0 1-1 2.56 4.43 4.43 0 0 1-3 .88h-.94V34h-2.19V23.68h3.3a4.41 4.41 0 0 1 2.86.81 3 3 0 0 1 .97 2.41zm-4.94 1.64h.72a2.43 2.43 0 0 0 1.51-.39 1.67 1.67 0 0 0 .08-2.3 2 2 0 0 0-1.32-.37h-1zM155.63 26a3.61 3.61 0 0 1 .73.07l-.16 2a2.41 2.41 0 0 0-.64-.07 2.31 2.31 0 0 0-1.61.53 1.92 1.92 0 0 0-.57 1.48v4h-2.16v-7.9h1.63l.32 1.33h.11a3 3 0 0 1 1-1.07 2.47 2.47 0 0 1 1.35-.37zm8.88 4.09a4.25 4.25 0 0 1-1 3 3.71 3.71 0 0 1-2.84 1.09 4 4 0 0 1-2-.5 3.31 3.31 0 0 1-1.34-1.43 4.83 4.83 0 0 1-.47-2.18 4.2 4.2 0 0 1 1-3A3.69 3.69 0 0 1 160.7 26a4 4 0 0 1 2 .5 3.29 3.29 0 0 1 1.3 1.38 4.78 4.78 0 0 1 .51 2.17zm-5.47 0a3.27 3.27 0 0 0 .39 1.77 1.38 1.38 0 0 0 1.25.61 1.35 1.35 0 0 0 1.24-.6 3.29 3.29 0 0 0 .38-1.78 3.31 3.31 0 0 0-.38-1.76 1.62 1.62 0 0 0-2.5 0 3.29 3.29 0 0 0-.42 1.72zm13.7-3.94v1.1l-1.24.32a2.11 2.11 0 0 1 .34 1.18 2.4 2.4 0 0 1-.89 2 3.85 3.85 0 0 1-2.46.71h-.71a.72.72 0 0 0-.33.57c0 .31.4.46 1.19.46H170a3.05 3.05 0 0 1 2 .56 2 2 0 0 1 .69 1.64 2.43 2.43 0 0 1-1.16 2.15 6 6 0 0 1-3.32.76 4.61 4.61 0 0 1-2.52-.57 1.82 1.82 0 0 1-.88-1.62 1.68 1.68 0 0 1 .45-1.19 2.53 2.53 0 0 1 1.3-.69A1.39 1.39 0 0 1 166 33a1.08 1.08 0 0 1-.25-.68 1.1 1.1 0 0 1 .26-.75 2.92 2.92 0 0 1 .76-.6 2 2 0 0 1-1-.86 2.63 2.63 0 0 1-.36-1.4 2.47 2.47 0 0 1 .84-2 3.64 3.64 0 0 1 2.4-.71 5 5 0 0 1 .79.07 5.23 5.23 0 0 1 .58.08zm-6.1 9a.77.77 0 0 0 .43.7 2.31 2.31 0 0 0 1.19.26 4.27 4.27 0 0 0 1.82-.32 1 1 0 0 0 .66-.87.63.63 0 0 0-.39-.62 3.25 3.25 0 0 0-1.2-.17H168a1.73 1.73 0 0 0-1 .28.87.87 0 0 0-.36.72zm.78-6.43a1.59 1.59 0 0 0 .3 1 1 1 0 0 0 .89.37 1 1 0 0 0 .89-.37 1.65 1.65 0 0 0 .28-1c0-.95-.39-1.43-1.17-1.43s-1.19.46-1.19 1.41zM178 26a3.61 3.61 0 0 1 .73.07l-.16 2A2.41 2.41 0 0 0 178 28a2.31 2.31 0 0 0-1.61.53 1.92 1.92 0 0 0-.57 1.48v4h-2.16v-7.9h1.63l.32 1.33h.11a3 3 0 0 1 1-1.07A2.47 2.47 0 0 1 178 26zm6.59 8l-.42-1.08a3.28 3.28 0 0 1-1.12 1 3.61 3.61 0 0 1-1.51.27 2.44 2.44 0 0 1-1.79-.65 2.54 2.54 0 0 1-.65-1.86 2.08 2.08 0 0 1 .88-1.85 5 5 0 0 1 2.65-.66H184v-.35a1.07 1.07 0 0 0-1.23-1.2 5.59 5.59 0 0 0-2.22.57l-.72-1.46a6.51 6.51 0 0 1 3-.71 3.79 3.79 0 0 1 2.44.69 2.6 2.6 0 0 1 .85 2.11V34zm-.59-3.64h-.83a2.76 2.76 0 0 0-1.4.34 1.07 1.07 0 0 0-.46 1c0 .61.35.91 1.05.91a1.63 1.63 0 0 0 1.19-.43A1.52 1.52 0 0 0 184 31zM194.87 34h-2.15v-4.6a2.31 2.31 0 0 0-.29-1.28 1 1 0 0 0-.9-.43 1.3 1.3 0 0 0-1.2.61 4 4 0 0 0-.38 2V34h-2.15v-7.89h1.64l.29 1h.13a2.2 2.2 0 0 1 .91-.85 3 3 0 0 1 1.38-.31 2.5 2.5 0 0 1 2.41 1.16h.19a2.14 2.14 0 0 1 .93-.85 3.2 3.2 0 0 1 1.4-.31 2.76 2.76 0 0 1 2 .69 3 3 0 0 1 .69 2.21V34h-2.16v-4.6a2.31 2.31 0 0 0-.29-1.28 1 1 0 0 0-.9-.43 1.33 1.33 0 0 0-1.18.57 3.1 3.1 0 0 0-.4 1.79zm13.71 0h-2.16v-4.6a2.32 2.32 0 0 0-.28-1.28 1 1 0 0 0-.9-.43 1.3 1.3 0 0 0-1.21.61 4 4 0 0 0-.37 2V34h-2.16v-7.89h1.65l.29 1h.12a2.23 2.23 0 0 1 .92-.85 3 3 0 0 1 1.38-.31 2.49 2.49 0 0 1 2.4 1.16h.19a2.16 2.16 0 0 1 .94-.85 3.15 3.15 0 0 1 1.39-.31 2.77 2.77 0 0 1 2 .69 3 3 0 0 1 .69 2.21V34h-2.17v-4.6a2.32 2.32 0 0 0-.28-1.28 1 1 0 0 0-.9-.43 1.35 1.35 0 0 0-1.19.57 3.19 3.19 0 0 0-.39 1.79zm10.25.14a4.05 4.05 0 0 1-3-1.06 4 4 0 0 1-1.07-3 4.39 4.39 0 0 1 1-3.07 3.55 3.55 0 0 1 2.76-1.01 3.46 3.46 0 0 1 2.6 1 3.57 3.57 0 0 1 .94 2.64v1H217a2.13 2.13 0 0 0 .5 1.36 1.94 1.94 0 0 0 1.43.51 5.82 5.82 0 0 0 1.35-.15 6.44 6.44 0 0 0 1.33-.47v1.71a5 5 0 0 1-1.21.42 7.74 7.74 0 0 1-1.57.14zm-.3-6.66a1.37 1.37 0 0 0-1.08.43 2.09 2.09 0 0 0-.44 1.24h3a1.75 1.75 0 0 0-.41-1.24 1.41 1.41 0 0 0-1.07-.41z" fill="#1d1d1b"/></svg>